{"glyphs":{"0":{"ha":1628,"x_min":68,"x_max":1560,"o":"m 610 271 l 610 678 l 1017 678 l 1017 271 l 610 271 m 339 0 l 1289 0 l 1289 949 l 339 949 l 339 0 m 1560 -271 l 68 -271 l 68 1221 l 1560 1221 l 1560 -271 z "},"1":{"ha":1628,"x_min":68,"x_max":1560,"o":"m 1560 -271 l 68 -271 l 68 1221 l 1560 1221 l 1560 -271 m 949 0 l 949 949 l 678 949 l 678 0 l 949 0 z "},"2":{"ha":1628,"x_min":68,"x_max":1560,"o":"m 339 678 l 1017 678 l 1017 610 l 339 610 l 339 0 l 1289 0 l 1289 271 l 610 271 l 610 339 l 1289 339 l 1289 949 l 339 949 l 339 678 m 68 -271 l 68 1221 l 1560 1221 l 1560 -271 l 68 -271 z "},"3":{"ha":1628,"x_min":68,"x_max":1560,"o":"m 1017 271 l 339 271 l 339 0 l 1289 0 l 1289 949 l 339 949 l 339 678 l 1017 678 l 1017 610 l 339 610 l 339 339 l 1017 339 l 1017 271 m 1560 -271 l 68 -271 l 68 1221 l 1560 1221 l 1560 -271 z "},"4":{"ha":1628,"x_min":68,"x_max":1560,"o":"m 339 339 l 1017 339 l 1017 0 l 1289 0 l 1289 949 l 1017 949 l 1017 610 l 610 610 l 610 949 l 339 949 l 339 339 m 1560 -271 l 68 -271 l 68 1221 l 1560 1221 l 1560 -271 z "},"5":{"ha":1628,"x_min":68,"x_max":1560,"o":"m 1289 678 l 1289 949 l 339 949 l 339 339 l 1017 339 l 1017 271 l 339 271 l 339 0 l 1289 0 l 1289 610 l 610 610 l 610 678 l 1289 678 m 1560 -271 l 68 -271 l 68 1221 l 1560 1221 l 1560 -271 z "},"6":{"ha":1628,"x_min":68,"x_max":1560,"o":"m 339 949 l 339 0 l 1289 0 l 1289 610 l 610 610 l 610 678 l 1289 678 l 1289 949 l 339 949 m 610 339 l 1017 339 l 1017 271 l 610 271 l 610 339 m 1560 -271 l 68 -271 l 68 1221 l 1560 1221 l 1560 -271 z "},"7":{"ha":1628,"x_min":68,"x_max":1560,"o":"m 1289 949 l 339 949 l 339 678 l 1017 678 l 1017 0 l 1289 0 l 1289 949 m 68 1221 l 1560 1221 l 1560 -271 l 68 -271 l 68 1221 z "},"8":{"ha":1628,"x_min":68,"x_max":1560,"o":"m 339 949 l 339 0 l 1289 0 l 1289 949 l 339 949 m 1017 339 l 1017 271 l 610 271 l 610 339 l 1017 339 m 1017 610 l 610 610 l 610 678 l 1017 678 l 1017 610 m 1560 -271 l 68 -271 l 68 1221 l 1560 1221 l 1560 -271 z "},"9":{"ha":1628,"x_min":68,"x_max":1560,"o":"m 1289 0 l 1289 949 l 339 949 l 339 339 l 1017 339 l 1017 271 l 339 271 l 339 0 l 1289 0 m 1017 610 l 610 610 l 610 678 l 1017 678 l 1017 610 m 1560 -271 l 68 -271 l 68 1221 l 1560 1221 l 1560 -271 z "},"\u0000":{"ha":0,"x_min":0,"x_max":0,"o":""}," ":{"ha":1628,"x_min":0,"x_max":0,"o":""},"!":{"ha":1628,"x_min":68,"x_max":1560,"o":"m 949 271 l 678 271 l 678 0 l 949 0 l 949 271 m 678 339 l 949 339 l 949 949 l 678 949 l 678 339 m 1560 -271 l 68 -271 l 68 1221 l 1560 1221 l 1560 -271 z "},"\"":{"ha":1628,"x_min":68,"x_max":1560,"o":"m 882 678 l 1153 678 l 1153 1017 l 882 1017 l 882 678 m 68 1221 l 1560 1221 l 1560 -271 l 68 -271 l 68 1221 m 475 678 l 746 678 l 746 1017 l 475 1017 l 475 678 z "},"#":{"ha":1628,"x_min":68,"x_max":1560,"o":"m 475 136 l 475 0 l 746 0 l 746 136 l 882 136 l 882 0 l 1153 0 l 1153 136 l 1289 136 l 1289 407 l 1153 407 l 1153 543 l 1289 543 l 1289 814 l 1153 814 l 1153 949 l 882 949 l 882 814 l 746 814 l 746 949 l 475 949 l 475 814 l 339 814 l 339 543 l 475 543 l 475 407 l 339 407 l 339 136 l 475 136 m 746 543 l 882 543 l 882 407 l 746 407 l 746 543 m 1560 -271 l 68 -271 l 68 1221 l 1560 1221 l 1560 -271 z "},"$":{"ha":1628,"x_min":68,"x_max":1560,"o":"m 746 949 l 339 949 l 339 339 l 1017 339 l 1017 271 l 339 271 l 339 0 l 746 0 l 746 -68 l 882 -68 l 882 0 l 1289 0 l 1289 610 l 610 610 l 610 678 l 1289 678 l 1289 949 l 882 949 l 882 1017 l 746 1017 l 746 949 m 1560 -271 l 68 -271 l 68 1221 l 1560 1221 l 1560 -271 z "},"%":{"ha":1628,"x_min":68,"x_max":1560,"o":"m 949 949 l 339 0 l 678 0 l 1289 949 l 949 949 m 1560 -271 l 68 -271 l 68 1221 l 1560 1221 l 1560 -271 m 610 678 l 610 949 l 339 949 l 339 678 l 610 678 m 1289 0 l 1289 271 l 1017 271 l 1017 0 l 1289 0 z "},"&":{"ha":1628,"x_min":68,"x_max":1560,"o":"m 1017 339 l 1017 271 l 610 271 l 610 339 l 1017 339 m 1017 610 l 610 610 l 610 678 l 1017 678 l 1017 610 m 1289 339 l 1356 339 l 1356 610 l 1289 610 l 1289 949 l 339 949 l 339 0 l 1289 0 l 1289 339 m 1560 -271 l 68 -271 l 68 1221 l 1560 1221 l 1560 -271 z "},"'":{"ha":1628,"x_min":68,"x_max":1560,"o":"m 678 678 l 949 678 l 949 1017 l 678 1017 l 678 678 m 68 1221 l 1560 1221 l 1560 -271 l 68 -271 l 68 1221 z "},"(":{"ha":1628,"x_min":68,"x_max":1560,"o":"m 1017 949 l 610 949 l 610 0 l 1017 0 l 1017 271 l 882 271 l 882 678 l 1017 678 l 1017 949 m 1560 -271 l 68 -271 l 68 1221 l 1560 1221 l 1560 -271 z "},")":{"ha":1628,"x_min":68,"x_max":1560,"o":"m 610 949 l 610 678 l 746 678 l 746 271 l 610 271 l 610 0 l 1017 0 l 1017 949 l 610 949 m 68 -271 l 68 1221 l 1560 1221 l 1560 -271 l 68 -271 z "},"*":{"ha":1628,"x_min":68,"x_max":1560,"o":"m 846 795 l 846 949 l 779 949 l 779 795 l 669 905 l 621 857 l 731 746 l 575 746 l 575 678 l 731 678 l 621 568 l 669 519 l 779 629 l 779 475 l 846 475 l 846 629 l 956 519 l 1004 568 l 894 678 l 1050 678 l 1050 746 l 894 746 l 1004 857 l 956 905 l 846 795 m 1560 -271 l 68 -271 l 68 1221 l 1560 1221 l 1560 -271 z "},"+":{"ha":1628,"x_min":68,"x_max":1560,"o":"m 678 610 l 407 610 l 407 339 l 678 339 l 678 68 l 949 68 l 949 339 l 1221 339 l 1221 610 l 949 610 l 949 882 l 678 882 l 678 610 m 1560 -271 l 68 -271 l 68 1221 l 1560 1221 l 1560 -271 z "},",":{"ha":1628,"x_min":68,"x_max":1560,"o":"m 678 271 l 678 -68 l 949 -68 l 949 271 l 678 271 m 68 -271 l 68 1221 l 1560 1221 l 1560 -271 l 68 -271 z "},"-":{"ha":1628,"x_min":68,"x_max":1560,"o":"m 1153 339 l 1153 610 l 475 610 l 475 339 l 1153 339 m 1560 -271 l 68 -271 l 68 1221 l 1560 1221 l 1560 -271 z "},".":{"ha":1628,"x_min":68,"x_max":1560,"o":"m 678 271 l 678 0 l 949 0 l 949 271 l 678 271 m 68 -271 l 68 1221 l 1560 1221 l 1560 -271 l 68 -271 z "},"/":{"ha":1628,"x_min":68,"x_max":1560,"o":"m 949 949 l 339 0 l 678 0 l 1289 949 l 949 949 m 1560 -271 l 68 -271 l 68 1221 l 1560 1221 l 1560 -271 z "},":":{"ha":1628,"x_min":68,"x_max":1560,"o":"m 678 271 l 678 0 l 949 0 l 949 271 l 678 271 m 68 -271 l 68 1221 l 1560 1221 l 1560 -271 l 68 -271 m 678 678 l 678 407 l 949 407 l 949 678 l 678 678 z "},";":{"ha":1628,"x_min":68,"x_max":1560,"o":"m 678 271 l 678 -68 l 949 -68 l 949 271 l 678 271 m 68 -271 l 68 1221 l 1560 1221 l 1560 -271 l 68 -271 m 678 678 l 678 407 l 949 407 l 949 678 l 678 678 z "},"<":{"ha":1628,"x_min":68,"x_max":1560,"o":"m 1289 271 l 610 475 l 1289 678 l 1289 949 l 339 678 l 339 271 l 1289 0 l 1289 271 m 68 -271 l 68 1221 l 1560 1221 l 1560 -271 l 68 -271 z "},"=":{"ha":1628,"x_min":68,"x_max":1560,"o":"m 1153 136 l 1153 407 l 475 407 l 475 136 l 1153 136 m 1560 -271 l 68 -271 l 68 1221 l 1560 1221 l 1560 -271 m 1153 543 l 1153 814 l 475 814 l 475 543 l 1153 543 z "},">":{"ha":1628,"x_min":68,"x_max":1560,"o":"m 339 271 l 339 0 l 1289 271 l 1289 678 l 339 949 l 339 678 l 1017 475 l 339 271 m 1560 -271 l 68 -271 l 68 1221 l 1560 1221 l 1560 -271 z "},"?":{"ha":1628,"x_min":68,"x_max":1560,"o":"m 678 271 l 678 0 l 949 0 l 949 271 l 678 271 m 678 610 l 678 339 l 1289 339 l 1289 949 l 339 949 l 339 678 l 1017 678 l 1017 610 l 678 610 m 68 -271 l 68 1221 l 1560 1221 l 1560 -271 l 68 -271 z "},"@":{"ha":1628,"x_min":68,"x_max":1560,"o":"m 1017 610 l 678 610 l 678 339 l 1289 339 l 1289 949 l 339 949 l 339 0 l 1289 0 l 1289 271 l 610 271 l 610 678 l 1017 678 l 1017 610 m 68 1221 l 1560 1221 l 1560 -271 l 68 -271 l 68 1221 z "},"A":{"ha":1628,"x_min":68,"x_max":1560,"o":"m 1017 610 l 610 610 l 610 678 l 1017 678 l 1017 610 m 610 339 l 1017 339 l 1017 0 l 1289 0 l 1289 949 l 339 949 l 339 0 l 610 0 l 610 339 m 1560 -271 l 68 -271 l 68 1221 l 1560 1221 l 1560 -271 z "},"B":{"ha":1628,"x_min":68,"x_max":1560,"o":"m 610 678 l 1017 678 l 1017 610 l 610 610 l 610 678 m 339 0 l 1289 0 l 1289 339 l 1153 475 l 1289 610 l 1289 949 l 339 949 l 339 0 m 610 271 l 610 339 l 1017 339 l 1017 271 l 610 271 m 1560 -271 l 68 -271 l 68 1221 l 1560 1221 l 1560 -271 z "},"C":{"ha":1628,"x_min":68,"x_max":1560,"o":"m 1289 271 l 610 271 l 610 678 l 1289 678 l 1289 949 l 339 949 l 339 0 l 1289 0 l 1289 271 m 1560 -271 l 68 -271 l 68 1221 l 1560 1221 l 1560 -271 z "},"D":{"ha":1628,"x_min":68,"x_max":1560,"o":"m 339 678 l 1017 678 l 1017 271 l 610 271 l 610 610 l 339 610 l 339 0 l 1289 0 l 1289 949 l 339 949 l 339 678 m 1560 -271 l 68 -271 l 68 1221 l 1560 1221 l 1560 -271 z "},"E":{"ha":1628,"x_min":68,"x_max":1560,"o":"m 610 271 l 610 339 l 1289 339 l 1289 610 l 610 610 l 610 678 l 1289 678 l 1289 949 l 339 949 l 339 0 l 1289 0 l 1289 271 l 610 271 m 1560 -271 l 68 -271 l 68 1221 l 1560 1221 l 1560 -271 z "},"F":{"ha":1628,"x_min":68,"x_max":1560,"o":"m 610 0 l 610 339 l 1289 339 l 1289 610 l 610 610 l 610 678 l 1289 678 l 1289 949 l 339 949 l 339 0 l 610 0 m 1560 -271 l 68 -271 l 68 1221 l 1560 1221 l 1560 -271 z "},"G":{"ha":1628,"x_min":68,"x_max":1560,"o":"m 1289 678 l 1289 949 l 339 949 l 339 0 l 1289 0 l 1289 610 l 1017 610 l 1017 271 l 610 271 l 610 678 l 1289 678 m 68 -271 l 68 1221 l 1560 1221 l 1560 -271 l 68 -271 z "},"H":{"ha":1628,"x_min":68,"x_max":1560,"o":"m 610 339 l 1017 339 l 1017 0 l 1289 0 l 1289 949 l 1017 949 l 1017 610 l 610 610 l 610 949 l 339 949 l 339 0 l 610 0 l 610 339 m 1560 -271 l 68 -271 l 68 1221 l 1560 1221 l 1560 -271 z "},"I":{"ha":1628,"x_min":68,"x_max":1560,"o":"m 339 0 l 1289 0 l 1289 271 l 949 271 l 949 678 l 1289 678 l 1289 949 l 339 949 l 339 678 l 678 678 l 678 271 l 339 271 l 339 0 m 1560 -271 l 68 -271 l 68 1221 l 1560 1221 l 1560 -271 z "},"J":{"ha":1628,"x_min":68,"x_max":1560,"o":"m 339 0 l 1289 0 l 1289 949 l 1017 949 l 1017 271 l 610 271 l 610 407 l 339 407 l 339 0 m 1560 -271 l 68 -271 l 68 1221 l 1560 1221 l 1560 -271 z "},"K":{"ha":1628,"x_min":68,"x_max":1560,"o":"m 610 678 l 610 949 l 339 949 l 339 0 l 610 0 l 610 271 l 882 0 l 1289 0 l 814 475 l 1289 949 l 882 949 l 610 678 m 1560 -271 l 68 -271 l 68 1221 l 1560 1221 l 1560 -271 z "},"L":{"ha":1628,"x_min":68,"x_max":1560,"o":"m 339 0 l 1289 0 l 1289 271 l 610 271 l 610 949 l 339 949 l 339 0 m 1560 -271 l 68 -271 l 68 1221 l 1560 1221 l 1560 -271 z "},"M":{"ha":1628,"x_min":68,"x_max":1560,"o":"m 610 678 l 678 678 l 678 0 l 949 0 l 949 678 l 1017 678 l 1017 0 l 1289 0 l 1289 949 l 339 949 l 339 0 l 610 0 l 610 678 m 68 -271 l 68 1221 l 1560 1221 l 1560 -271 l 68 -271 z "},"N":{"ha":1628,"x_min":68,"x_max":1560,"o":"m 610 0 l 610 678 l 1017 678 l 1017 0 l 1289 0 l 1289 949 l 339 949 l 339 0 l 610 0 m 68 -271 l 68 1221 l 1560 1221 l 1560 -271 l 68 -271 z "},"O":{"ha":1628,"x_min":68,"x_max":1560,"o":"m 610 271 l 610 678 l 1017 678 l 1017 271 l 610 271 m 339 0 l 1289 0 l 1289 949 l 339 949 l 339 0 m 1560 -271 l 68 -271 l 68 1221 l 1560 1221 l 1560 -271 z "},"P":{"ha":1628,"x_min":68,"x_max":1560,"o":"m 610 678 l 1017 678 l 1017 610 l 610 610 l 610 678 m 610 339 l 1289 339 l 1289 949 l 339 949 l 339 0 l 610 0 l 610 339 m 1560 -271 l 68 -271 l 68 1221 l 1560 1221 l 1560 -271 z "},"Q":{"ha":1628,"x_min":68,"x_max":1560,"o":"m 610 271 l 610 678 l 1017 678 l 1017 271 l 610 271 m 746 0 l 746 -68 l 882 -68 l 882 0 l 1289 0 l 1289 949 l 339 949 l 339 0 l 746 0 m 1560 -271 l 68 -271 l 68 1221 l 1560 1221 l 1560 -271 z "},"R":{"ha":1628,"x_min":68,"x_max":1560,"o":"m 610 678 l 1017 678 l 1017 610 l 610 610 l 610 678 m 1560 -271 l 68 -271 l 68 1221 l 1560 1221 l 1560 -271 m 610 271 l 882 0 l 1289 0 l 949 339 l 1289 339 l 1289 949 l 339 949 l 339 0 l 610 0 l 610 271 z "},"S":{"ha":1628,"x_min":68,"x_max":1560,"o":"m 1289 678 l 1289 949 l 339 949 l 339 339 l 1017 339 l 1017 271 l 339 271 l 339 0 l 1289 0 l 1289 610 l 610 610 l 610 678 l 1289 678 m 1560 -271 l 68 -271 l 68 1221 l 1560 1221 l 1560 -271 z "},"T":{"ha":1628,"x_min":68,"x_max":1560,"o":"m 949 678 l 1289 678 l 1289 949 l 339 949 l 339 678 l 678 678 l 678 0 l 949 0 l 949 678 m 1560 -271 l 68 -271 l 68 1221 l 1560 1221 l 1560 -271 z "},"U":{"ha":1628,"x_min":68,"x_max":1560,"o":"m 1017 949 l 1017 271 l 610 271 l 610 949 l 339 949 l 339 0 l 1289 0 l 1289 949 l 1017 949 m 1560 1221 l 1560 -271 l 68 -271 l 68 1221 l 1560 1221 z "},"V":{"ha":1628,"x_min":68,"x_max":1560,"o":"m 1017 949 l 814 271 l 610 949 l 339 949 l 610 0 l 1017 0 l 1289 949 l 1017 949 m 1560 -271 l 68 -271 l 68 1221 l 1560 1221 l 1560 -271 z "},"W":{"ha":1628,"x_min":68,"x_max":1560,"o":"m 1017 271 l 949 271 l 949 949 l 678 949 l 678 271 l 610 271 l 610 949 l 339 949 l 339 0 l 1289 0 l 1289 949 l 1017 949 l 1017 271 m 1560 1221 l 1560 -271 l 68 -271 l 68 1221 l 1560 1221 z "},"X":{"ha":1628,"x_min":68,"x_max":1560,"o":"m 644 475 l 339 0 l 678 0 l 814 211 l 949 0 l 1289 0 l 983 475 l 1289 949 l 949 949 l 814 739 l 678 949 l 339 949 l 644 475 m 1560 -271 l 68 -271 l 68 1221 l 1560 1221 l 1560 -271 z "},"Y":{"ha":1628,"x_min":68,"x_max":1560,"o":"m 1560 -271 l 68 -271 l 68 1221 l 1560 1221 l 1560 -271 m 339 949 l 678 448 l 678 0 l 949 0 l 949 448 l 1289 949 l 949 949 l 814 746 l 678 949 l 339 949 z "},"Z":{"ha":1628,"x_min":68,"x_max":1560,"o":"m 814 678 l 339 271 l 339 0 l 1289 0 l 1289 271 l 746 271 l 1289 746 l 1289 949 l 339 949 l 339 678 l 814 678 m 1560 -271 l 68 -271 l 68 1221 l 1560 1221 l 1560 -271 z "},"[":{"ha":1628,"x_min":68,"x_max":1560,"o":"m 1560 -271 l 68 -271 l 68 1221 l 1560 1221 l 1560 -271 z "},"\\":{"ha":1628,"x_min":68,"x_max":1560,"o":"m 678 949 l 339 949 l 949 0 l 1289 0 l 678 949 m 1560 -271 l 68 -271 l 68 1221 l 1560 1221 l 1560 -271 z "},"]":{"ha":1628,"x_min":68,"x_max":1560,"o":"m 68 -271 l 68 1221 l 1560 1221 l 1560 -271 l 68 -271 z "},"^":{"ha":1628,"x_min":68,"x_max":1560,"o":"m 68 1221 l 1560 1221 l 1560 -271 l 68 -271 l 68 1221 m 475 678 l 678 678 l 814 814 l 949 678 l 1153 678 l 882 949 l 746 949 l 475 678 z "},"_":{"ha":1628,"x_min":68,"x_max":1560,"o":"m 1289 0 l 1289 271 l 339 271 l 339 0 l 1289 0 m 1560 -271 l 68 -271 l 68 1221 l 1560 1221 l 1560 -271 z "},"`":{"ha":1628,"x_min":68,"x_max":1560,"o":"m 639 746 l 910 746 l 978 1017 l 707 1017 l 639 746 m 68 1221 l 1560 1221 l 1560 -271 l 68 -271 l 68 1221 z "},"a":{"ha":1628,"x_min":68,"x_max":1560,"o":"m 1017 610 l 610 610 l 610 678 l 1017 678 l 1017 610 m 610 339 l 1017 339 l 1017 0 l 1289 0 l 1289 949 l 339 949 l 339 0 l 610 0 l 610 339 m 1560 -271 l 68 -271 l 68 1221 l 1560 1221 l 1560 -271 z "},"b":{"ha":1628,"x_min":68,"x_max":1560,"o":"m 610 678 l 1017 678 l 1017 610 l 610 610 l 610 678 m 339 0 l 1289 0 l 1289 339 l 1153 475 l 1289 610 l 1289 949 l 339 949 l 339 0 m 610 271 l 610 339 l 1017 339 l 1017 271 l 610 271 m 1560 -271 l 68 -271 l 68 1221 l 1560 1221 l 1560 -271 z "},"c":{"ha":1628,"x_min":68,"x_max":1560,"o":"m 1289 271 l 610 271 l 610 678 l 1289 678 l 1289 949 l 339 949 l 339 0 l 1289 0 l 1289 271 m 1560 -271 l 68 -271 l 68 1221 l 1560 1221 l 1560 -271 z "},"d":{"ha":1628,"x_min":68,"x_max":1560,"o":"m 339 678 l 1017 678 l 1017 271 l 610 271 l 610 610 l 339 610 l 339 0 l 1289 0 l 1289 949 l 339 949 l 339 678 m 1560 -271 l 68 -271 l 68 1221 l 1560 1221 l 1560 -271 z "},"e":{"ha":1628,"x_min":68,"x_max":1560,"o":"m 610 271 l 610 339 l 1289 339 l 1289 610 l 610 610 l 610 678 l 1289 678 l 1289 949 l 339 949 l 339 0 l 1289 0 l 1289 271 l 610 271 m 1560 -271 l 68 -271 l 68 1221 l 1560 1221 l 1560 -271 z "},"f":{"ha":1628,"x_min":68,"x_max":1560,"o":"m 610 0 l 610 339 l 1289 339 l 1289 610 l 610 610 l 610 678 l 1289 678 l 1289 949 l 339 949 l 339 0 l 610 0 m 1560 -271 l 68 -271 l 68 1221 l 1560 1221 l 1560 -271 z "},"g":{"ha":1628,"x_min":68,"x_max":1560,"o":"m 1289 678 l 1289 949 l 339 949 l 339 0 l 1289 0 l 1289 610 l 1017 610 l 1017 271 l 610 271 l 610 678 l 1289 678 m 68 -271 l 68 1221 l 1560 1221 l 1560 -271 l 68 -271 z "},"h":{"ha":1628,"x_min":68,"x_max":1560,"o":"m 610 339 l 1017 339 l 1017 0 l 1289 0 l 1289 949 l 1017 949 l 1017 610 l 610 610 l 610 949 l 339 949 l 339 0 l 610 0 l 610 339 m 1560 -271 l 68 -271 l 68 1221 l 1560 1221 l 1560 -271 z "},"i":{"ha":1628,"x_min":68,"x_max":1560,"o":"m 1560 -271 l 68 -271 l 68 1221 l 1560 1221 l 1560 -271 m 949 0 l 949 949 l 678 949 l 678 0 l 949 0 z "},"j":{"ha":1628,"x_min":68,"x_max":1560,"o":"m 339 0 l 1289 0 l 1289 949 l 1017 949 l 1017 271 l 610 271 l 610 407 l 339 407 l 339 0 m 1560 -271 l 68 -271 l 68 1221 l 1560 1221 l 1560 -271 z "},"k":{"ha":1628,"x_min":68,"x_max":1560,"o":"m 610 678 l 610 949 l 339 949 l 339 0 l 610 0 l 610 271 l 882 0 l 1289 0 l 814 475 l 1289 949 l 882 949 l 610 678 m 1560 -271 l 68 -271 l 68 1221 l 1560 1221 l 1560 -271 z "},"l":{"ha":1628,"x_min":68,"x_max":1560,"o":"m 339 0 l 1289 0 l 1289 271 l 610 271 l 610 949 l 339 949 l 339 0 m 1560 -271 l 68 -271 l 68 1221 l 1560 1221 l 1560 -271 z "},"m":{"ha":1628,"x_min":68,"x_max":1560,"o":"m 610 678 l 678 678 l 678 0 l 949 0 l 949 678 l 1017 678 l 1017 0 l 1289 0 l 1289 949 l 339 949 l 339 0 l 610 0 l 610 678 m 68 -271 l 68 1221 l 1560 1221 l 1560 -271 l 68 -271 z "},"n":{"ha":1628,"x_min":68,"x_max":1560,"o":"m 610 0 l 610 678 l 1017 678 l 1017 0 l 1289 0 l 1289 949 l 339 949 l 339 0 l 610 0 m 68 -271 l 68 1221 l 1560 1221 l 1560 -271 l 68 -271 z "},"o":{"ha":1628,"x_min":68,"x_max":1560,"o":"m 610 271 l 610 678 l 1017 678 l 1017 271 l 610 271 m 339 0 l 1289 0 l 1289 949 l 339 949 l 339 0 m 1560 -271 l 68 -271 l 68 1221 l 1560 1221 l 1560 -271 z "},"p":{"ha":1628,"x_min":68,"x_max":1560,"o":"m 610 678 l 1017 678 l 1017 610 l 610 610 l 610 678 m 610 339 l 1289 339 l 1289 949 l 339 949 l 339 0 l 610 0 l 610 339 m 1560 -271 l 68 -271 l 68 1221 l 1560 1221 l 1560 -271 z "},"q":{"ha":1628,"x_min":68,"x_max":1560,"o":"m 610 271 l 610 678 l 1017 678 l 1017 271 l 610 271 m 746 0 l 746 -68 l 882 -68 l 882 0 l 1289 0 l 1289 949 l 339 949 l 339 0 l 746 0 m 1560 -271 l 68 -271 l 68 1221 l 1560 1221 l 1560 -271 z "},"r":{"ha":1628,"x_min":68,"x_max":1560,"o":"m 610 678 l 1017 678 l 1017 610 l 610 610 l 610 678 m 1560 -271 l 68 -271 l 68 1221 l 1560 1221 l 1560 -271 m 610 271 l 882 0 l 1289 0 l 949 339 l 1289 339 l 1289 949 l 339 949 l 339 0 l 610 0 l 610 271 z "},"s":{"ha":1628,"x_min":68,"x_max":1560,"o":"m 1289 678 l 1289 949 l 339 949 l 339 339 l 1017 339 l 1017 271 l 339 271 l 339 0 l 1289 0 l 1289 610 l 610 610 l 610 678 l 1289 678 m 1560 -271 l 68 -271 l 68 1221 l 1560 1221 l 1560 -271 z "},"t":{"ha":1628,"x_min":68,"x_max":1560,"o":"m 949 678 l 1289 678 l 1289 949 l 339 949 l 339 678 l 678 678 l 678 0 l 949 0 l 949 678 m 1560 -271 l 68 -271 l 68 1221 l 1560 1221 l 1560 -271 z "},"u":{"ha":1628,"x_min":68,"x_max":1560,"o":"m 1017 949 l 1017 271 l 610 271 l 610 949 l 339 949 l 339 0 l 1289 0 l 1289 949 l 1017 949 m 1560 1221 l 1560 -271 l 68 -271 l 68 1221 l 1560 1221 z "},"v":{"ha":1628,"x_min":68,"x_max":1560,"o":"m 1017 949 l 814 271 l 610 949 l 339 949 l 610 0 l 1017 0 l 1289 949 l 1017 949 m 1560 -271 l 68 -271 l 68 1221 l 1560 1221 l 1560 -271 z "},"w":{"ha":1628,"x_min":68,"x_max":1560,"o":"m 1017 271 l 949 271 l 949 949 l 678 949 l 678 271 l 610 271 l 610 949 l 339 949 l 339 0 l 1289 0 l 1289 949 l 1017 949 l 1017 271 m 1560 1221 l 1560 -271 l 68 -271 l 68 1221 l 1560 1221 z "},"x":{"ha":1628,"x_min":68,"x_max":1560,"o":"m 644 475 l 339 0 l 678 0 l 814 211 l 949 0 l 1289 0 l 983 475 l 1289 949 l 949 949 l 814 739 l 678 949 l 339 949 l 644 475 m 1560 -271 l 68 -271 l 68 1221 l 1560 1221 l 1560 -271 z "},"y":{"ha":1628,"x_min":68,"x_max":1560,"o":"m 1560 -271 l 68 -271 l 68 1221 l 1560 1221 l 1560 -271 m 339 949 l 678 448 l 678 0 l 949 0 l 949 448 l 1289 949 l 949 949 l 814 746 l 678 949 l 339 949 z "},"z":{"ha":1628,"x_min":68,"x_max":1560,"o":"m 814 678 l 339 271 l 339 0 l 1289 0 l 1289 271 l 746 271 l 1289 746 l 1289 949 l 339 949 l 339 678 l 814 678 m 1560 -271 l 68 -271 l 68 1221 l 1560 1221 l 1560 -271 z "},"{":{"ha":1628,"x_min":68,"x_max":1560,"o":"m 610 543 l 543 543 l 543 407 l 610 407 l 610 0 l 1017 0 l 1017 271 l 882 271 l 882 678 l 1017 678 l 1017 949 l 610 949 l 610 543 m 68 -271 l 68 1221 l 1560 1221 l 1560 -271 l 68 -271 z "},"|":{"ha":1628,"x_min":68,"x_max":1560,"o":"m 1560 -271 l 68 -271 l 68 1221 l 1560 1221 l 1560 -271 m 949 0 l 949 949 l 678 949 l 678 0 l 949 0 z "},"}":{"ha":1628,"x_min":68,"x_max":1560,"o":"m 1017 407 l 1085 407 l 1085 543 l 1017 543 l 1017 949 l 610 949 l 610 678 l 746 678 l 746 271 l 610 271 l 610 0 l 1017 0 l 1017 407 m 68 -271 l 68 1221 l 1560 1221 l 1560 -271 l 68 -271 z "},"~":{"ha":1628,"x_min":68,"x_max":1560,"o":"m 1153 339 l 1153 610 l 475 610 l 475 339 l 1153 339 m 1560 -271 l 68 -271 l 68 1221 l 1560 1221 l 1560 -271 z "},"£":{"ha":1628,"x_min":68,"x_max":1560,"o":"m 1017 678 l 1017 610 l 1289 610 l 1289 949 l 407 949 l 407 610 l 339 610 l 339 339 l 407 339 l 407 0 l 1289 0 l 1289 271 l 678 271 l 678 339 l 949 339 l 949 610 l 678 610 l 678 678 l 1017 678 m 1560 -271 l 68 -271 l 68 1221 l 1560 1221 l 1560 -271 z "},"¥":{"ha":1628,"x_min":68,"x_max":1560,"o":"m 678 136 l 678 0 l 949 0 l 949 136 l 1221 136 l 1221 407 l 949 407 l 949 448 l 1289 949 l 949 949 l 814 746 l 678 949 l 339 949 l 678 448 l 678 407 l 407 407 l 407 136 l 678 136 m 1560 -271 l 68 -271 l 68 1221 l 1560 1221 l 1560 -271 z "},"€":{"ha":1628,"x_min":68,"x_max":1560,"o":"m 1153 441 l 678 441 l 678 509 l 1153 509 l 1153 610 l 678 610 l 678 678 l 1289 678 l 1289 949 l 407 949 l 407 610 l 339 610 l 339 509 l 407 509 l 407 441 l 339 441 l 339 339 l 407 339 l 407 0 l 1289 0 l 1289 271 l 678 271 l 678 339 l 1153 339 l 1153 441 m 1560 -271 l 68 -271 l 68 1221 l 1560 1221 l 1560 -271 z "},"¡":{"ha":1628,"x_min":68,"x_max":1560,"o":"m 949 678 l 949 949 l 678 949 l 678 678 l 949 678 m 678 610 l 678 0 l 949 0 l 949 610 l 678 610 m 1560 1221 l 1560 -271 l 68 -271 l 68 1221 l 1560 1221 z "},"¢":{"ha":1628,"x_min":68,"x_max":1560,"o":"m 746 949 l 339 949 l 339 0 l 746 0 l 746 -68 l 882 -68 l 882 0 l 1289 0 l 1289 271 l 610 271 l 610 678 l 1289 678 l 1289 949 l 882 949 l 882 1017 l 746 1017 l 746 949 m 1560 -271 l 68 -271 l 68 1221 l 1560 1221 l 1560 -271 z "},"¿":{"ha":1628,"x_min":68,"x_max":1560,"o":"m 949 678 l 949 949 l 678 949 l 678 678 l 949 678 m 949 339 l 949 610 l 339 610 l 339 0 l 1289 0 l 1289 271 l 610 271 l 610 339 l 949 339 m 1560 1221 l 1560 -271 l 68 -271 l 68 1221 l 1560 1221 z "},"̈":{"ha":1628,"x_min":610,"x_max":1017,"o":"m 746 1017 l 610 1017 l 610 1153 l 746 1153 l 746 1017 m 1017 1017 l 882 1017 l 882 1153 l 1017 1153 l 1017 1017 z "},"̊":{"ha":1628,"x_min":678,"x_max":949,"o":"m 882 949 l 882 1085 l 746 1085 l 746 949 l 678 949 l 678 1153 l 949 1153 l 949 949 l 882 949 z "},"̌":{"ha":1628,"x_min":644,"x_max":983,"o":"m 814 983 l 644 1153 l 746 1153 l 814 1085 l 882 1153 l 983 1153 l 814 983 z "},"̀":{"ha":1628,"x_min":678,"x_max":949,"o":"m 814 1017 l 678 1153 l 814 1153 l 949 1017 l 814 1017 z "},"́":{"ha":1628,"x_min":746,"x_max":1017,"o":"m 882 1017 l 746 1017 l 882 1153 l 1017 1153 l 882 1017 z "},"̂":{"ha":1628,"x_min":644,"x_max":983,"o":"m 814 1153 l 983 983 l 882 983 l 814 1051 l 746 983 l 644 983 l 814 1153 z "},"̃":{"ha":1628,"x_min":543,"x_max":1085,"o":"m 543 1017 q 678 1153 610 1153 q 814 1119 746 1153 q 932 1085 882 1085 q 1017 1153 983 1085 l 1085 1153 q 949 1017 1017 1017 q 814 1051 882 1017 q 695 1085 746 1085 q 610 1017 644 1085 l 543 1017 z "},"À":{"ha":1628,"x_min":68,"x_max":1560,"o":"m 1017 610 l 610 610 l 610 678 l 1017 678 l 1017 610 m 610 339 l 1017 339 l 1017 0 l 1289 0 l 1289 949 l 339 949 l 339 0 l 610 0 l 610 339 m 1560 -271 l 68 -271 l 68 1221 l 1560 1221 l 1560 -271 m 768 1017 l 633 1153 l 768 1153 l 904 1017 l 768 1017 z "},"Á":{"ha":1628,"x_min":68,"x_max":1560,"o":"m 1017 610 l 610 610 l 610 678 l 1017 678 l 1017 610 m 610 339 l 1017 339 l 1017 0 l 1289 0 l 1289 949 l 339 949 l 339 0 l 610 0 l 610 339 m 1560 -271 l 68 -271 l 68 1221 l 1560 1221 l 1560 -271 m 859 1017 l 724 1017 l 859 1153 l 995 1153 l 859 1017 z "},"Â":{"ha":1628,"x_min":68,"x_max":1560,"o":"m 1017 610 l 610 610 l 610 678 l 1017 678 l 1017 610 m 610 339 l 1017 339 l 1017 0 l 1289 0 l 1289 949 l 339 949 l 339 0 l 610 0 l 610 339 m 1560 -271 l 68 -271 l 68 1221 l 1560 1221 l 1560 -271 m 814 1153 l 983 983 l 882 983 l 814 1051 l 746 983 l 644 983 l 814 1153 z "},"Ã":{"ha":1628,"x_min":68,"x_max":1560,"o":"m 1017 610 l 610 610 l 610 678 l 1017 678 l 1017 610 m 610 339 l 1017 339 l 1017 0 l 1289 0 l 1289 949 l 339 949 l 339 0 l 610 0 l 610 339 m 1560 -271 l 68 -271 l 68 1221 l 1560 1221 l 1560 -271 m 543 1017 q 678 1153 610 1153 q 814 1119 746 1153 q 932 1085 882 1085 q 1017 1153 983 1085 l 1085 1153 q 949 1017 1017 1017 q 814 1051 882 1017 q 695 1085 746 1085 q 610 1017 644 1085 l 543 1017 z "},"Ä":{"ha":1628,"x_min":68,"x_max":1560,"o":"m 1017 610 l 610 610 l 610 678 l 1017 678 l 1017 610 m 610 339 l 1017 339 l 1017 0 l 1289 0 l 1289 949 l 339 949 l 339 0 l 610 0 l 610 339 m 1560 -271 l 68 -271 l 68 1221 l 1560 1221 l 1560 -271 m 746 1017 l 610 1017 l 610 1153 l 746 1153 l 746 1017 m 1017 1017 l 882 1017 l 882 1153 l 1017 1153 l 1017 1017 z "},"Å":{"ha":1628,"x_min":68,"x_max":1560,"o":"m 1017 610 l 610 610 l 610 678 l 1017 678 l 1017 610 m 949 1153 l 678 1153 l 678 949 l 339 949 l 339 0 l 610 0 l 610 339 l 1017 339 l 1017 0 l 1289 0 l 1289 949 l 949 949 l 949 1153 m 746 1085 l 882 1085 l 882 949 l 746 949 l 746 1085 m 1560 -271 l 68 -271 l 68 1221 l 1560 1221 l 1560 -271 z "},"Æ":{"ha":2374,"x_min":68,"x_max":1560,"o":"m 1560 -271 l 68 -271 l 68 1221 l 1560 1221 l 1560 -271 m 746 610 l 610 610 l 610 678 l 746 678 l 746 610 m 339 949 l 339 0 l 610 0 l 610 339 l 746 339 l 746 0 l 1289 0 l 1289 271 l 1017 271 l 1017 339 l 1289 339 l 1289 610 l 1017 610 l 1017 678 l 1289 678 l 1289 949 l 339 949 z "},"Ç":{"ha":1628,"x_min":68,"x_max":1560,"o":"m 814 -68 l 746 -68 l 746 -136 l 882 -136 l 882 0 l 1289 0 l 1289 271 l 610 271 l 610 678 l 1289 678 l 1289 949 l 339 949 l 339 0 l 814 0 l 814 -68 m 1560 -271 l 68 -271 l 68 1221 l 1560 1221 l 1560 -271 z "},"È":{"ha":1628,"x_min":68,"x_max":1560,"o":"m 610 271 l 610 339 l 1289 339 l 1289 610 l 610 610 l 610 678 l 1289 678 l 1289 949 l 339 949 l 339 0 l 1289 0 l 1289 271 l 610 271 m 1560 -271 l 68 -271 l 68 1221 l 1560 1221 l 1560 -271 m 768 1017 l 633 1153 l 768 1153 l 904 1017 l 768 1017 z "},"É":{"ha":1628,"x_min":68,"x_max":1560,"o":"m 610 271 l 610 339 l 1289 339 l 1289 610 l 610 610 l 610 678 l 1289 678 l 1289 949 l 339 949 l 339 0 l 1289 0 l 1289 271 l 610 271 m 1560 -271 l 68 -271 l 68 1221 l 1560 1221 l 1560 -271 m 859 1017 l 724 1017 l 859 1153 l 995 1153 l 859 1017 z "},"Ê":{"ha":1628,"x_min":68,"x_max":1560,"o":"m 610 271 l 610 339 l 1289 339 l 1289 610 l 610 610 l 610 678 l 1289 678 l 1289 949 l 339 949 l 339 0 l 1289 0 l 1289 271 l 610 271 m 1560 -271 l 68 -271 l 68 1221 l 1560 1221 l 1560 -271 m 814 1153 l 983 983 l 882 983 l 814 1051 l 746 983 l 644 983 l 814 1153 z "},"Ë":{"ha":1628,"x_min":68,"x_max":1560,"o":"m 610 271 l 610 339 l 1289 339 l 1289 610 l 610 610 l 610 678 l 1289 678 l 1289 949 l 339 949 l 339 0 l 1289 0 l 1289 271 l 610 271 m 1560 -271 l 68 -271 l 68 1221 l 1560 1221 l 1560 -271 m 746 1017 l 610 1017 l 610 1153 l 746 1153 l 746 1017 m 1017 1017 l 882 1017 l 882 1153 l 1017 1153 l 1017 1017 z "},"Ì":{"ha":1628,"x_min":68,"x_max":1560,"o":"m 339 0 l 1289 0 l 1289 271 l 949 271 l 949 678 l 1289 678 l 1289 949 l 339 949 l 339 678 l 678 678 l 678 271 l 339 271 l 339 0 m 1560 -271 l 68 -271 l 68 1221 l 1560 1221 l 1560 -271 m 768 1017 l 633 1153 l 768 1153 l 904 1017 l 768 1017 z "},"Í":{"ha":1628,"x_min":68,"x_max":1560,"o":"m 339 0 l 1289 0 l 1289 271 l 949 271 l 949 678 l 1289 678 l 1289 949 l 339 949 l 339 678 l 678 678 l 678 271 l 339 271 l 339 0 m 1560 -271 l 68 -271 l 68 1221 l 1560 1221 l 1560 -271 m 859 1017 l 724 1017 l 859 1153 l 995 1153 l 859 1017 z "},"Î":{"ha":1628,"x_min":68,"x_max":1560,"o":"m 339 0 l 1289 0 l 1289 271 l 949 271 l 949 678 l 1289 678 l 1289 949 l 339 949 l 339 678 l 678 678 l 678 271 l 339 271 l 339 0 m 1560 -271 l 68 -271 l 68 1221 l 1560 1221 l 1560 -271 m 814 1153 l 983 983 l 882 983 l 814 1051 l 746 983 l 644 983 l 814 1153 z "},"Ï":{"ha":1628,"x_min":68,"x_max":1560,"o":"m 339 0 l 1289 0 l 1289 271 l 949 271 l 949 678 l 1289 678 l 1289 949 l 339 949 l 339 678 l 678 678 l 678 271 l 339 271 l 339 0 m 1560 -271 l 68 -271 l 68 1221 l 1560 1221 l 1560 -271 m 746 1017 l 610 1017 l 610 1153 l 746 1153 l 746 1017 m 1017 1017 l 882 1017 l 882 1153 l 1017 1153 l 1017 1017 z "},"Ð":{"ha":1628,"x_min":68,"x_max":1560,"o":"m 271 610 l 271 339 l 339 339 l 339 0 l 1289 0 l 1289 949 l 339 949 l 339 678 l 1017 678 l 1017 271 l 610 271 l 610 339 l 678 339 l 678 610 l 271 610 m 1560 -271 l 68 -271 l 68 1221 l 1560 1221 l 1560 -271 z "},"Ñ":{"ha":1628,"x_min":68,"x_max":1560,"o":"m 610 0 l 610 678 l 1017 678 l 1017 0 l 1289 0 l 1289 949 l 339 949 l 339 0 l 610 0 m 68 -271 l 68 1221 l 1560 1221 l 1560 -271 l 68 -271 m 543 1017 q 678 1153 610 1153 q 814 1119 746 1153 q 932 1085 882 1085 q 1017 1153 983 1085 l 1085 1153 q 949 1017 1017 1017 q 814 1051 882 1017 q 695 1085 746 1085 q 610 1017 644 1085 l 543 1017 z "},"Ò":{"ha":1628,"x_min":68,"x_max":1560,"o":"m 610 271 l 610 678 l 1017 678 l 1017 271 l 610 271 m 339 0 l 1289 0 l 1289 949 l 339 949 l 339 0 m 1560 -271 l 68 -271 l 68 1221 l 1560 1221 l 1560 -271 m 768 1017 l 633 1153 l 768 1153 l 904 1017 l 768 1017 z "},"Ó":{"ha":1628,"x_min":68,"x_max":1560,"o":"m 610 271 l 610 678 l 1017 678 l 1017 271 l 610 271 m 339 0 l 1289 0 l 1289 949 l 339 949 l 339 0 m 1560 -271 l 68 -271 l 68 1221 l 1560 1221 l 1560 -271 m 859 1017 l 724 1017 l 859 1153 l 995 1153 l 859 1017 z "},"Ô":{"ha":1628,"x_min":68,"x_max":1560,"o":"m 610 271 l 610 678 l 1017 678 l 1017 271 l 610 271 m 339 0 l 1289 0 l 1289 949 l 339 949 l 339 0 m 1560 -271 l 68 -271 l 68 1221 l 1560 1221 l 1560 -271 m 814 1153 l 983 983 l 882 983 l 814 1051 l 746 983 l 644 983 l 814 1153 z "},"Õ":{"ha":1628,"x_min":68,"x_max":1560,"o":"m 610 271 l 610 678 l 1017 678 l 1017 271 l 610 271 m 339 0 l 1289 0 l 1289 949 l 339 949 l 339 0 m 1560 -271 l 68 -271 l 68 1221 l 1560 1221 l 1560 -271 m 543 1017 q 678 1153 610 1153 q 814 1119 746 1153 q 932 1085 882 1085 q 1017 1153 983 1085 l 1085 1153 q 949 1017 1017 1017 q 814 1051 882 1017 q 695 1085 746 1085 q 610 1017 644 1085 l 543 1017 z "},"Ö":{"ha":1628,"x_min":68,"x_max":1560,"o":"m 610 271 l 610 678 l 1017 678 l 1017 271 l 610 271 m 339 0 l 1289 0 l 1289 949 l 339 949 l 339 0 m 1560 -271 l 68 -271 l 68 1221 l 1560 1221 l 1560 -271 m 746 1017 l 610 1017 l 610 1153 l 746 1153 l 746 1017 m 1017 1017 l 882 1017 l 882 1153 l 1017 1153 l 1017 1017 z "},"×":{"ha":1628,"x_min":68,"x_max":1560,"o":"m 813 667 l 621 858 l 430 666 l 622 474 l 431 282 l 623 91 l 814 283 l 1006 92 l 1198 283 l 1006 475 l 1197 667 l 1005 859 l 813 667 m 1560 -271 l 68 -271 l 68 1221 l 1560 1221 l 1560 -271 z "},"Ø":{"ha":1628,"x_min":68,"x_max":1560,"o":"m 1017 678 l 1017 271 l 746 271 l 1017 678 m 610 271 l 610 678 l 882 678 l 610 271 m 339 0 l 1289 0 l 1289 949 l 339 949 l 339 0 m 1560 -271 l 68 -271 l 68 1221 l 1560 1221 l 1560 -271 z "},"Ù":{"ha":1628,"x_min":68,"x_max":1560,"o":"m 1017 949 l 1017 271 l 610 271 l 610 949 l 339 949 l 339 0 l 1289 0 l 1289 949 l 1017 949 m 1560 1221 l 1560 -271 l 68 -271 l 68 1221 l 1560 1221 m 768 1017 l 633 1153 l 768 1153 l 904 1017 l 768 1017 z "},"Ú":{"ha":1628,"x_min":68,"x_max":1560,"o":"m 1017 949 l 1017 271 l 610 271 l 610 949 l 339 949 l 339 0 l 1289 0 l 1289 949 l 1017 949 m 1560 1221 l 1560 -271 l 68 -271 l 68 1221 l 1560 1221 m 859 1017 l 724 1017 l 859 1153 l 995 1153 l 859 1017 z "},"Û":{"ha":1628,"x_min":68,"x_max":1560,"o":"m 1017 949 l 1017 271 l 610 271 l 610 949 l 339 949 l 339 0 l 1289 0 l 1289 949 l 1017 949 m 1560 1221 l 1560 -271 l 68 -271 l 68 1221 l 1560 1221 m 814 1153 l 983 983 l 882 983 l 814 1051 l 746 983 l 644 983 l 814 1153 z "},"Ü":{"ha":1628,"x_min":68,"x_max":1560,"o":"m 1017 949 l 1017 271 l 610 271 l 610 949 l 339 949 l 339 0 l 1289 0 l 1289 949 l 1017 949 m 1560 1221 l 1560 -271 l 68 -271 l 68 1221 l 1560 1221 m 746 1017 l 610 1017 l 610 1153 l 746 1153 l 746 1017 m 1017 1017 l 882 1017 l 882 1153 l 1017 1153 l 1017 1017 z "},"Ý":{"ha":1628,"x_min":68,"x_max":1560,"o":"m 1560 -271 l 68 -271 l 68 1221 l 1560 1221 l 1560 -271 m 339 949 l 678 448 l 678 0 l 949 0 l 949 448 l 1289 949 l 949 949 l 814 746 l 678 949 l 339 949 m 859 1017 l 724 1017 l 859 1153 l 995 1153 l 859 1017 z "},"Þ":{"ha":1628,"x_min":68,"x_max":1560,"o":"m 339 0 l 610 0 l 610 136 l 1289 136 l 1289 814 l 610 814 l 610 949 l 339 949 l 339 0 m 610 543 l 1017 543 l 1017 407 l 610 407 l 610 543 m 1560 -271 l 68 -271 l 68 1221 l 1560 1221 l 1560 -271 z "},"ß":{"ha":1628,"x_min":68,"x_max":1560,"o":"m 610 678 l 1017 678 l 1017 610 l 610 610 l 610 678 m 882 271 l 882 0 l 1289 0 l 1289 339 l 1153 475 l 1289 610 l 1289 949 l 339 949 l 339 0 l 610 0 l 610 339 l 1017 339 l 1017 271 l 882 271 m 1560 -271 l 68 -271 l 68 1221 l 1560 1221 l 1560 -271 z "},"à":{"ha":1628,"x_min":68,"x_max":1560,"o":"m 1017 610 l 610 610 l 610 678 l 1017 678 l 1017 610 m 610 339 l 1017 339 l 1017 0 l 1289 0 l 1289 949 l 339 949 l 339 0 l 610 0 l 610 339 m 1560 -271 l 68 -271 l 68 1221 l 1560 1221 l 1560 -271 m 768 1017 l 633 1153 l 768 1153 l 904 1017 l 768 1017 z "},"á":{"ha":1628,"x_min":68,"x_max":1560,"o":"m 1017 610 l 610 610 l 610 678 l 1017 678 l 1017 610 m 610 339 l 1017 339 l 1017 0 l 1289 0 l 1289 949 l 339 949 l 339 0 l 610 0 l 610 339 m 1560 -271 l 68 -271 l 68 1221 l 1560 1221 l 1560 -271 m 859 1017 l 724 1017 l 859 1153 l 995 1153 l 859 1017 z "},"â":{"ha":1628,"x_min":68,"x_max":1560,"o":"m 1017 610 l 610 610 l 610 678 l 1017 678 l 1017 610 m 610 339 l 1017 339 l 1017 0 l 1289 0 l 1289 949 l 339 949 l 339 0 l 610 0 l 610 339 m 1560 -271 l 68 -271 l 68 1221 l 1560 1221 l 1560 -271 m 814 1153 l 983 983 l 882 983 l 814 1051 l 746 983 l 644 983 l 814 1153 z "},"ã":{"ha":1628,"x_min":68,"x_max":1560,"o":"m 1017 610 l 610 610 l 610 678 l 1017 678 l 1017 610 m 610 339 l 1017 339 l 1017 0 l 1289 0 l 1289 949 l 339 949 l 339 0 l 610 0 l 610 339 m 1560 -271 l 68 -271 l 68 1221 l 1560 1221 l 1560 -271 m 543 1017 q 678 1153 610 1153 q 814 1119 746 1153 q 932 1085 882 1085 q 1017 1153 983 1085 l 1085 1153 q 949 1017 1017 1017 q 814 1051 882 1017 q 695 1085 746 1085 q 610 1017 644 1085 l 543 1017 z "},"ä":{"ha":1628,"x_min":68,"x_max":1560,"o":"m 1017 610 l 610 610 l 610 678 l 1017 678 l 1017 610 m 610 339 l 1017 339 l 1017 0 l 1289 0 l 1289 949 l 339 949 l 339 0 l 610 0 l 610 339 m 1560 -271 l 68 -271 l 68 1221 l 1560 1221 l 1560 -271 m 746 1017 l 610 1017 l 610 1153 l 746 1153 l 746 1017 m 1017 1017 l 882 1017 l 882 1153 l 1017 1153 l 1017 1017 z "},"å":{"ha":1628,"x_min":68,"x_max":1560,"o":"m 1017 610 l 610 610 l 610 678 l 1017 678 l 1017 610 m 949 1153 l 678 1153 l 678 949 l 339 949 l 339 0 l 610 0 l 610 339 l 1017 339 l 1017 0 l 1289 0 l 1289 949 l 949 949 l 949 1153 m 746 1085 l 882 1085 l 882 949 l 746 949 l 746 1085 m 1560 -271 l 68 -271 l 68 1221 l 1560 1221 l 1560 -271 z "},"æ":{"ha":2374,"x_min":68,"x_max":1560,"o":"m 1560 -271 l 68 -271 l 68 1221 l 1560 1221 l 1560 -271 m 746 610 l 610 610 l 610 678 l 746 678 l 746 610 m 339 949 l 339 0 l 610 0 l 610 339 l 746 339 l 746 0 l 1289 0 l 1289 271 l 1017 271 l 1017 339 l 1289 339 l 1289 610 l 1017 610 l 1017 678 l 1289 678 l 1289 949 l 339 949 z "},"ç":{"ha":1628,"x_min":68,"x_max":1560,"o":"m 814 -68 l 746 -68 l 746 -136 l 882 -136 l 882 0 l 1289 0 l 1289 271 l 610 271 l 610 678 l 1289 678 l 1289 949 l 339 949 l 339 0 l 814 0 l 814 -68 m 1560 -271 l 68 -271 l 68 1221 l 1560 1221 l 1560 -271 z "},"è":{"ha":1628,"x_min":68,"x_max":1560,"o":"m 610 271 l 610 339 l 1289 339 l 1289 610 l 610 610 l 610 678 l 1289 678 l 1289 949 l 339 949 l 339 0 l 1289 0 l 1289 271 l 610 271 m 1560 -271 l 68 -271 l 68 1221 l 1560 1221 l 1560 -271 m 768 1017 l 633 1153 l 768 1153 l 904 1017 l 768 1017 z "},"é":{"ha":1628,"x_min":68,"x_max":1560,"o":"m 610 271 l 610 339 l 1289 339 l 1289 610 l 610 610 l 610 678 l 1289 678 l 1289 949 l 339 949 l 339 0 l 1289 0 l 1289 271 l 610 271 m 1560 -271 l 68 -271 l 68 1221 l 1560 1221 l 1560 -271 m 859 1017 l 724 1017 l 859 1153 l 995 1153 l 859 1017 z "},"ê":{"ha":1628,"x_min":68,"x_max":1560,"o":"m 610 271 l 610 339 l 1289 339 l 1289 610 l 610 610 l 610 678 l 1289 678 l 1289 949 l 339 949 l 339 0 l 1289 0 l 1289 271 l 610 271 m 1560 -271 l 68 -271 l 68 1221 l 1560 1221 l 1560 -271 m 814 1153 l 983 983 l 882 983 l 814 1051 l 746 983 l 644 983 l 814 1153 z "},"ë":{"ha":1628,"x_min":68,"x_max":1560,"o":"m 610 271 l 610 339 l 1289 339 l 1289 610 l 610 610 l 610 678 l 1289 678 l 1289 949 l 339 949 l 339 0 l 1289 0 l 1289 271 l 610 271 m 1560 -271 l 68 -271 l 68 1221 l 1560 1221 l 1560 -271 m 746 1017 l 610 1017 l 610 1153 l 746 1153 l 746 1017 m 1017 1017 l 882 1017 l 882 1153 l 1017 1153 l 1017 1017 z "},"ì":{"ha":1628,"x_min":68,"x_max":1560,"o":"m 1560 -271 l 68 -271 l 68 1221 l 1560 1221 l 1560 -271 m 768 1017 l 904 1017 l 768 1153 l 633 1153 l 768 1017 m 949 0 l 949 949 l 678 949 l 678 0 l 949 0 z "},"í":{"ha":1628,"x_min":68,"x_max":1560,"o":"m 859 1017 l 995 1153 l 859 1153 l 724 1017 l 859 1017 m 1560 -271 l 68 -271 l 68 1221 l 1560 1221 l 1560 -271 m 949 0 l 949 949 l 678 949 l 678 0 l 949 0 z "},"î":{"ha":1628,"x_min":68,"x_max":1560,"o":"m 1560 -271 l 68 -271 l 68 1221 l 1560 1221 l 1560 -271 m 814 1153 l 644 983 l 746 983 l 814 1051 l 882 983 l 983 983 l 814 1153 m 949 0 l 949 949 l 678 949 l 678 0 l 949 0 z "},"ï":{"ha":1628,"x_min":68,"x_max":1560,"o":"m 1560 -271 l 68 -271 l 68 1221 l 1560 1221 l 1560 -271 m 746 1017 l 746 1153 l 610 1153 l 610 1017 l 746 1017 m 1017 1017 l 1017 1153 l 882 1153 l 882 1017 l 1017 1017 m 949 0 l 949 949 l 678 949 l 678 0 l 949 0 z "},"ð":{"ha":1628,"x_min":68,"x_max":1560,"o":"m 610 271 l 610 678 l 1017 678 l 1017 271 l 610 271 m 1243 1017 l 1289 1017 l 1289 1085 l 1198 1085 l 1153 1153 l 1017 1153 l 1063 1085 l 1017 1085 l 1017 1017 l 1107 1017 l 1153 949 l 339 949 l 339 0 l 1289 0 l 1289 949 l 1243 1017 m 1560 -271 l 68 -271 l 68 1221 l 1560 1221 l 1560 -271 z "},"ñ":{"ha":1628,"x_min":68,"x_max":1560,"o":"m 610 0 l 610 678 l 1017 678 l 1017 0 l 1289 0 l 1289 949 l 339 949 l 339 0 l 610 0 m 68 -271 l 68 1221 l 1560 1221 l 1560 -271 l 68 -271 m 543 1017 q 678 1153 610 1153 q 814 1119 746 1153 q 932 1085 882 1085 q 1017 1153 983 1085 l 1085 1153 q 949 1017 1017 1017 q 814 1051 882 1017 q 695 1085 746 1085 q 610 1017 644 1085 l 543 1017 z "},"ò":{"ha":1628,"x_min":68,"x_max":1560,"o":"m 610 271 l 610 678 l 1017 678 l 1017 271 l 610 271 m 339 0 l 1289 0 l 1289 949 l 339 949 l 339 0 m 1560 -271 l 68 -271 l 68 1221 l 1560 1221 l 1560 -271 m 768 1017 l 633 1153 l 768 1153 l 904 1017 l 768 1017 z "},"ó":{"ha":1628,"x_min":68,"x_max":1560,"o":"m 610 271 l 610 678 l 1017 678 l 1017 271 l 610 271 m 339 0 l 1289 0 l 1289 949 l 339 949 l 339 0 m 1560 -271 l 68 -271 l 68 1221 l 1560 1221 l 1560 -271 m 859 1017 l 724 1017 l 859 1153 l 995 1153 l 859 1017 z "},"ô":{"ha":1628,"x_min":68,"x_max":1560,"o":"m 610 271 l 610 678 l 1017 678 l 1017 271 l 610 271 m 339 0 l 1289 0 l 1289 949 l 339 949 l 339 0 m 1560 -271 l 68 -271 l 68 1221 l 1560 1221 l 1560 -271 m 814 1153 l 983 983 l 882 983 l 814 1051 l 746 983 l 644 983 l 814 1153 z "},"õ":{"ha":1628,"x_min":68,"x_max":1560,"o":"m 610 271 l 610 678 l 1017 678 l 1017 271 l 610 271 m 339 0 l 1289 0 l 1289 949 l 339 949 l 339 0 m 1560 -271 l 68 -271 l 68 1221 l 1560 1221 l 1560 -271 m 543 1017 q 678 1153 610 1153 q 814 1119 746 1153 q 932 1085 882 1085 q 1017 1153 983 1085 l 1085 1153 q 949 1017 1017 1017 q 814 1051 882 1017 q 695 1085 746 1085 q 610 1017 644 1085 l 543 1017 z "},"ö":{"ha":1628,"x_min":68,"x_max":1560,"o":"m 610 271 l 610 678 l 1017 678 l 1017 271 l 610 271 m 339 0 l 1289 0 l 1289 949 l 339 949 l 339 0 m 1560 -271 l 68 -271 l 68 1221 l 1560 1221 l 1560 -271 m 746 1017 l 610 1017 l 610 1153 l 746 1153 l 746 1017 m 1017 1017 l 882 1017 l 882 1153 l 1017 1153 l 1017 1017 z "},"÷":{"ha":1628,"x_min":68,"x_max":1560,"o":"m 1153 339 l 1153 610 l 475 610 l 475 339 l 1153 339 m 1560 -271 l 68 -271 l 68 1221 l 1560 1221 l 1560 -271 m 678 271 l 678 0 l 949 0 l 949 271 l 678 271 m 678 949 l 678 678 l 949 678 l 949 949 l 678 949 z "},"ø":{"ha":1628,"x_min":68,"x_max":1560,"o":"m 1017 678 l 1017 271 l 746 271 l 1017 678 m 610 271 l 610 678 l 882 678 l 610 271 m 339 0 l 1289 0 l 1289 949 l 339 949 l 339 0 m 1560 -271 l 68 -271 l 68 1221 l 1560 1221 l 1560 -271 z "},"ù":{"ha":1628,"x_min":68,"x_max":1560,"o":"m 1017 949 l 1017 271 l 610 271 l 610 949 l 339 949 l 339 0 l 1289 0 l 1289 949 l 1017 949 m 1560 1221 l 1560 -271 l 68 -271 l 68 1221 l 1560 1221 m 768 1017 l 633 1153 l 768 1153 l 904 1017 l 768 1017 z "},"ú":{"ha":1628,"x_min":68,"x_max":1560,"o":"m 1017 949 l 1017 271 l 610 271 l 610 949 l 339 949 l 339 0 l 1289 0 l 1289 949 l 1017 949 m 1560 1221 l 1560 -271 l 68 -271 l 68 1221 l 1560 1221 m 859 1017 l 724 1017 l 859 1153 l 995 1153 l 859 1017 z "},"û":{"ha":1628,"x_min":68,"x_max":1560,"o":"m 1017 949 l 1017 271 l 610 271 l 610 949 l 339 949 l 339 0 l 1289 0 l 1289 949 l 1017 949 m 1560 1221 l 1560 -271 l 68 -271 l 68 1221 l 1560 1221 m 814 1153 l 983 983 l 882 983 l 814 1051 l 746 983 l 644 983 l 814 1153 z "},"ü":{"ha":1628,"x_min":68,"x_max":1560,"o":"m 1017 949 l 1017 271 l 610 271 l 610 949 l 339 949 l 339 0 l 1289 0 l 1289 949 l 1017 949 m 1560 1221 l 1560 -271 l 68 -271 l 68 1221 l 1560 1221 m 746 1017 l 610 1017 l 610 1153 l 746 1153 l 746 1017 m 1017 1017 l 882 1017 l 882 1153 l 1017 1153 l 1017 1017 z "},"ý":{"ha":1628,"x_min":68,"x_max":1560,"o":"m 1560 -271 l 68 -271 l 68 1221 l 1560 1221 l 1560 -271 m 339 949 l 678 448 l 678 0 l 949 0 l 949 448 l 1289 949 l 949 949 l 814 746 l 678 949 l 339 949 m 859 1017 l 724 1017 l 859 1153 l 995 1153 l 859 1017 z "},"þ":{"ha":1628,"x_min":68,"x_max":1560,"o":"m 339 0 l 610 0 l 610 136 l 1289 136 l 1289 814 l 610 814 l 610 949 l 339 949 l 339 0 m 610 543 l 1017 543 l 1017 407 l 610 407 l 610 543 m 1560 -271 l 68 -271 l 68 1221 l 1560 1221 l 1560 -271 z "},"ÿ":{"ha":1628,"x_min":68,"x_max":1560,"o":"m 1560 -271 l 68 -271 l 68 1221 l 1560 1221 l 1560 -271 m 339 949 l 678 448 l 678 0 l 949 0 l 949 448 l 1289 949 l 949 949 l 814 746 l 678 949 l 339 949 m 746 1017 l 610 1017 l 610 1153 l 746 1153 l 746 1017 m 1017 1017 l 882 1017 l 882 1153 l 1017 1153 l 1017 1017 z "},"Œ":{"ha":1628,"x_min":68,"x_max":1560,"o":"m 1560 -271 l 68 -271 l 68 1221 l 1560 1221 l 1560 -271 m 610 271 l 610 678 l 746 678 l 746 271 l 610 271 m 339 949 l 339 0 l 1289 0 l 1289 271 l 1017 271 l 1017 339 l 1289 339 l 1289 610 l 1017 610 l 1017 678 l 1289 678 l 1289 949 l 339 949 z "},"œ":{"ha":1628,"x_min":68,"x_max":1560,"o":"m 1560 -271 l 68 -271 l 68 1221 l 1560 1221 l 1560 -271 m 610 271 l 610 678 l 746 678 l 746 271 l 610 271 m 339 949 l 339 0 l 1289 0 l 1289 271 l 1017 271 l 1017 339 l 1289 339 l 1289 610 l 1017 610 l 1017 678 l 1289 678 l 1289 949 l 339 949 z "}}}
